<svg version="1.1" id="Layer_1" xmlns="http://www.w3.org/2000/svg" xmlns:xlink="http://www.w3.org/1999/xlink" x="0px" y="0px"
	 width="100%" viewBox="0 0 876 572" enable-background="new 0 0 876 572" xml:space="preserve">
<path fill="#FEFEFE" opacity="1.000000" stroke="none" 
	d="
M570.000000,573.000000 
	C381.500000,573.000000 193.500000,572.987000 5.500053,573.093689 
	C1.750726,573.095825 0.904191,572.249268 0.906323,568.499939 
	C1.013050,380.833344 1.013050,193.166672 0.906323,5.500053 
	C0.904191,1.750725 1.750866,0.905466 5.500033,0.906786 
	C294.500000,1.008489 583.500000,1.008489 872.499939,0.906786 
	C876.249146,0.905466 877.095825,1.750725 877.093689,5.500053 
	C876.986938,193.166672 876.986938,380.833344 877.093689,568.499939 
	C877.095825,572.249268 876.249695,573.099243 872.499878,573.094788 
	C771.833313,572.975830 671.166687,573.000000 570.000000,573.000000 
z"/>
<path fill="#74B207" opacity="1.000000" stroke="none" 
	d="
M238.443146,233.070404 
	C237.744781,232.502090 237.374054,232.057724 236.981384,231.317078 
	C236.734421,228.444351 237.035172,226.317123 240.421387,226.354691 
	C243.428619,226.388077 245.451035,224.861435 244.810211,221.808472 
	C244.140060,218.615860 241.735077,218.333740 239.001495,219.730499 
	C237.303375,220.598190 235.527145,221.130707 234.109375,219.214569 
	C232.666626,217.264679 230.480698,215.550888 231.531570,212.654114 
	C232.543594,209.864410 233.283920,206.925232 235.438873,204.692154 
	C237.937607,202.102829 238.510300,199.526825 235.160522,197.226089 
	C232.279572,195.247345 233.277634,193.044449 234.676392,190.444427 
	C235.472336,187.066742 231.473114,186.413788 231.337524,183.383423 
	C230.843933,182.022415 230.575577,180.933533 229.908844,179.635468 
	C228.329803,177.277176 227.074890,178.200470 225.781799,179.512207 
	C223.943283,181.377243 221.874313,180.878021 219.899368,179.851639 
	C217.737152,178.727859 216.371429,176.880814 216.163666,174.427917 
	C216.000473,172.501328 216.838715,171.240143 219.042877,171.486298 
	C220.175095,171.612747 221.221100,172.236145 222.726868,172.012634 
	C224.593719,171.368149 224.324585,170.668793 223.094986,170.096252 
	C220.160995,168.730103 218.145340,166.813095 218.267868,163.255951 
	C218.339554,161.174591 216.608032,161.148026 215.144623,160.783722 
	C212.335953,160.084503 210.934509,158.158264 211.035461,155.310867 
	C211.136871,152.450562 212.822937,151.566055 215.613937,151.227600 
	C219.185501,150.794464 221.506516,147.124374 225.505600,147.098526 
	C223.254959,144.202164 221.453323,144.609467 219.431366,146.940445 
	C215.003891,152.044586 214.766876,152.010071 209.657166,147.492722 
	C208.901260,146.824432 208.138535,145.863098 207.185532,145.912781 
	C203.263733,146.117218 200.989243,144.457336 198.889526,141.024811 
	C197.375076,138.549042 193.776154,139.883789 191.511627,140.951920 
	C188.874664,142.195694 186.821732,143.203781 184.430908,140.653595 
	C182.011917,138.073380 181.235428,135.291626 182.495239,131.969177 
	C182.843674,131.050262 183.611115,130.301682 183.608658,128.918060 
	C173.944763,133.189255 177.960602,122.210297 174.052780,120.207748 
	C173.385239,120.219406 173.117828,120.377602 172.981522,120.701973 
	C172.329742,122.253014 173.661240,124.798042 171.117676,125.325943 
	C168.956787,125.774422 167.446869,124.119873 166.025589,122.696274 
	C165.555344,122.225266 165.937592,122.883484 165.749573,122.294556 
	C164.747116,119.154465 160.341827,118.814659 160.012451,115.083717 
	C159.632690,110.782143 164.112778,110.740723 165.757950,108.242546 
	C166.032425,107.825752 166.325134,107.420753 166.589966,106.996948 
	C167.723206,105.183449 168.572662,102.933754 171.313507,103.227196 
	C174.309341,103.547935 173.857422,106.287964 174.610397,108.175072 
	C174.790878,108.627403 175.043823,109.046005 176.361206,109.086769 
	C175.593536,104.684204 173.121368,101.433807 169.917908,99.124809 
	C167.049561,97.057373 164.795258,100.441032 162.259460,101.347885 
	C160.717560,101.899307 161.097824,103.551346 160.722519,104.783089 
	C158.688416,111.459206 155.234436,112.968758 149.250504,109.477921 
	C146.947525,108.134438 142.894501,108.433632 142.722565,104.913872 
	C142.542953,101.237274 146.438461,101.310791 148.848114,100.101517 
	C150.242279,99.401863 151.551651,98.290329 151.101913,96.618393 
	C150.591431,94.720665 149.142853,96.515511 148.247635,96.257759 
	C141.331711,94.266518 140.107773,100.844994 136.573639,103.910011 
	C134.760529,105.482475 133.519409,110.842888 130.742111,104.625122 
	C130.389893,103.836601 129.583450,104.096252 129.034042,104.528862 
	C126.746635,106.329994 124.615700,104.932121 122.460693,104.237999 
	C121.114494,103.804375 119.099586,104.285278 118.720482,102.392403 
	C118.302353,100.304665 120.398521,100.384857 121.606934,99.657333 
	C124.253159,98.064217 121.985710,96.988846 121.040649,95.871178 
	C119.481377,94.027115 115.371300,94.031975 116.570801,90.239372 
	C117.602570,86.977119 120.742096,88.042343 123.107063,87.251480 
	C126.205925,86.215210 129.210526,84.289688 132.146881,82.647888 
	C136.738525,80.080544 142.768723,80.570892 146.298477,75.784119 
	C146.993973,74.840950 148.701263,75.196320 149.292252,76.395218 
	C150.651215,79.152092 153.536636,79.356834 155.919266,81.068283 
	C157.098480,79.233078 155.186752,76.416779 157.730042,75.697563 
	C159.973129,75.063248 161.126633,77.424393 163.124237,78.264565 
	C160.357666,74.356468 162.688339,70.338089 162.559509,66.136917 
	C163.339279,65.351395 164.028000,65.166870 165.128998,65.167953 
	C166.119827,65.338913 166.695114,65.626633 167.290405,65.870697 
	C168.566116,66.393753 169.792877,67.969429 171.203201,66.926788 
	C172.478241,65.984169 171.003296,64.564270 171.069061,63.331348 
	C171.103378,62.688095 171.108170,62.048397 171.382019,61.076050 
	C172.996170,58.699589 174.455658,56.631641 177.649155,56.490089 
	C180.302673,58.009323 181.124359,59.863972 179.730972,62.531292 
	C181.767349,60.494545 183.223557,57.898991 185.832840,56.577728 
	C190.078735,54.427734 194.052902,52.385326 199.349167,54.273975 
	C204.759811,56.203411 208.800385,51.461769 213.701721,49.350784 
	C214.775360,49.125614 215.545410,49.068146 216.686844,49.130390 
	C221.473434,50.328522 218.850906,52.279190 217.339203,54.491802 
	C222.574463,52.248413 227.932693,54.861050 232.849686,52.498238 
	C234.137161,51.879555 235.448227,52.878902 236.241623,53.999920 
	C238.765625,57.566135 242.345642,59.296589 246.794327,60.293716 
	C249.725281,63.285633 253.134125,62.411331 256.697449,62.573296 
	C257.210754,62.903137 257.379272,63.089600 257.708435,63.619911 
	C258.086304,64.696785 258.133759,65.447433 258.067291,66.572067 
	C257.527893,70.057632 255.709747,72.327637 253.512619,74.488449 
	C251.742386,76.229424 250.565659,78.500923 249.221817,80.598251 
	C248.561554,81.628723 248.360992,82.869171 249.427444,83.784729 
	C250.478302,84.686867 251.779755,84.446938 252.595673,83.542381 
	C256.641449,79.057175 261.650085,77.010033 267.650024,77.064278 
	C269.304565,77.079239 270.199280,75.720741 271.066345,74.445755 
	C272.145447,72.858971 272.820068,70.354935 275.252533,70.793350 
	C277.536011,71.204918 276.928131,73.716698 277.441956,75.371994 
	C277.639404,76.008255 277.777832,76.668610 278.774109,77.054726 
	C280.255157,75.597664 279.347565,73.770042 279.356781,72.106133 
	C279.381073,67.709656 281.896545,65.863869 285.278198,68.335640 
	C289.819427,71.654976 295.271179,74.193481 297.628479,79.882843 
	C298.041229,80.879005 298.620697,80.841179 299.527679,80.876877 
	C303.695709,81.040939 306.522827,84.372635 305.006622,88.168129 
	C303.372772,92.258026 305.816071,93.076248 308.765350,94.643448 
	C309.184601,91.246712 310.573730,88.266289 306.954834,85.972855 
	C305.772766,85.223709 305.882233,83.525925 306.725800,82.332420 
	C307.644714,81.032364 309.017578,81.112244 310.316315,81.738724 
	C316.150269,84.552849 320.478851,89.047508 324.086792,94.296135 
	C325.702393,96.646400 323.841431,98.293442 322.687866,99.912476 
	C322.732300,100.421463 322.970001,100.680550 323.338440,100.572838 
	C325.078308,100.064178 326.926819,97.946739 328.466125,100.722351 
	C329.635986,102.831894 326.853912,107.799797 324.053101,108.803238 
	C321.854370,109.590965 319.412720,108.899734 316.843658,109.850891 
	C317.685364,111.208084 318.901978,110.822563 319.856354,111.068420 
	C323.580597,112.027802 324.702454,115.207840 322.342285,118.200279 
	C321.480865,119.292480 319.329529,120.138733 320.814209,121.763130 
	C322.658295,123.780701 324.210083,126.558098 327.240692,126.906471 
	C329.461090,127.161713 331.128296,122.911186 329.887207,120.503349 
	C329.426300,119.609085 328.493683,119.070740 327.922119,118.257256 
	C324.869415,113.912224 328.461578,104.488449 333.509247,103.581062 
	C334.829041,103.343811 335.897430,103.955910 336.393158,105.076485 
	C337.337982,107.212158 338.237549,109.310280 340.021301,110.946747 
	C340.659576,111.532310 340.364899,112.399254 339.923370,113.221153 
	C337.572418,117.597397 338.084991,120.307220 341.691010,123.187141 
	C348.314087,128.476608 348.362427,128.493881 345.561829,136.334305 
	C344.011230,140.675385 341.453217,144.743103 342.869049,149.727646 
	C343.234222,151.013382 342.499939,152.354874 341.217957,153.109161 
	C339.613220,154.053360 338.235260,153.299194 337.180359,152.201294 
	C333.934875,148.823517 330.279694,146.552414 325.362213,146.818771 
	C324.204163,146.881485 323.279358,145.856445 322.243927,145.336685 
	C318.260406,143.337036 314.682922,140.431931 309.979553,140.029007 
	C308.345306,139.889038 307.203491,138.936264 307.307281,136.724426 
	C308.400696,134.723068 308.642487,133.175552 306.926300,131.746521 
	C305.827606,130.831680 304.765747,129.843903 304.384827,128.005112 
	C304.523987,124.342117 308.152527,123.136772 308.978943,120.191277 
	C303.490173,119.456932 301.373199,120.905373 300.060944,126.116585 
	C299.279297,129.220703 297.785614,131.461853 294.086029,129.950150 
	C292.470154,129.289871 291.201080,129.090561 290.460205,131.008331 
	C289.075195,134.593521 286.407135,133.704117 283.801849,132.907043 
	C276.725128,130.741974 276.026398,130.896118 271.497101,136.466980 
	C270.019592,138.284225 268.155609,139.711792 266.692413,141.516785 
	C265.574554,142.895706 264.982391,144.574097 266.309967,146.051590 
	C267.702484,147.601349 269.131470,146.462753 270.190094,145.438919 
	C276.326477,139.504105 283.704742,141.058823 290.921112,142.015762 
	C293.817352,142.399811 294.277618,144.273682 292.901672,146.767731 
	C290.145538,151.763550 290.352081,152.673157 294.947266,157.033142 
	C295.803192,156.648773 295.471283,155.917694 295.396576,155.311813 
	C295.174530,153.511261 294.515259,151.482040 296.776459,150.560242 
	C298.899414,149.694824 299.601410,151.584869 300.538788,152.930099 
	C302.331116,155.502274 305.584106,154.157074 308.139557,155.711090 
	C308.723541,155.755264 308.940338,155.817688 309.178589,156.192413 
	C310.217468,159.620804 309.004639,161.736191 305.648682,161.925034 
	C301.513336,162.157669 300.660431,164.400238 301.169708,168.136795 
	C301.921326,162.708954 303.109039,162.094284 307.861420,163.050064 
	C311.624359,163.806870 314.593872,166.429733 318.575409,166.761765 
	C320.781189,166.945724 321.156586,169.130753 319.443298,170.914444 
	C318.131073,172.280624 316.404449,172.868835 314.570312,173.225616 
	C312.787323,173.572418 310.949524,173.870392 309.675781,175.722031 
	C313.318604,176.245773 316.460144,176.157486 319.317200,173.332748 
	C321.274658,171.397446 323.967651,170.037491 325.299316,174.338837 
	C325.569305,175.210815 326.241028,175.636536 327.188049,175.634018 
	C332.697479,175.619324 330.872223,178.278992 328.846710,181.149597 
	C326.454132,183.078537 324.136475,184.037430 321.299194,183.848770 
	C319.342163,183.718628 317.566833,184.524719 316.147461,186.283188 
	C320.783539,185.028336 324.252228,186.546143 327.179688,190.433441 
	C328.058899,191.485886 328.485382,192.388428 329.041199,193.660568 
	C329.761261,195.787079 330.318878,197.555527 329.549042,199.793777 
	C328.264984,201.394791 326.781555,201.850830 324.849152,202.181152 
	C322.488190,202.346924 320.476624,202.066254 318.495239,202.379028 
	C314.721710,202.974762 311.322479,208.891510 312.685181,212.413971 
	C313.724609,215.100967 316.070160,215.432419 317.959656,213.025818 
	C319.286957,211.335251 320.180359,209.278702 322.639404,208.240570 
	C325.120575,207.704956 326.716736,208.927643 328.462646,209.866440 
	C330.690948,211.064606 332.344757,210.962296 331.999420,207.706772 
	C331.821442,206.028625 331.991211,204.406906 333.496460,202.850861 
	C334.237823,202.413147 334.718964,202.296646 335.605225,202.275742 
	C338.343506,202.816757 340.392700,203.910233 342.380066,205.864349 
	C344.543396,210.303101 341.953278,214.625900 343.296478,219.111115 
	C345.265137,222.640213 340.667114,223.816833 341.217834,226.944580 
	C341.365662,228.618652 341.499054,229.958344 342.037598,231.185196 
	C343.015900,233.413834 342.808380,235.506622 341.009064,237.108124 
	C339.305786,238.624161 337.260132,238.097214 335.361023,237.307205 
	C333.043335,236.343079 330.935425,235.096863 329.222748,233.162842 
	C328.133789,231.933182 327.059906,229.340469 325.003937,231.170898 
	C323.401733,232.597321 321.620300,234.795334 322.839996,237.328201 
	C324.280182,240.318954 325.272003,243.515594 327.083221,246.340118 
	C328.619873,248.736511 330.565186,251.629288 327.915527,253.968933 
	C325.536804,256.069336 322.175842,255.327530 319.507111,253.767288 
	C317.614899,252.661041 315.582153,252.019409 313.651672,251.105835 
	C310.026093,249.390030 306.801056,248.891663 302.852386,250.739792 
	C299.533203,252.293320 295.701141,249.887299 292.039215,250.306335 
	C290.931641,250.433075 289.723755,250.003647 287.719025,251.736191 
	C294.965057,249.643509 301.078064,252.172989 307.344879,251.284027 
	C311.573730,250.684158 315.018036,254.024582 315.414246,258.158234 
	C315.582245,259.911163 314.718048,260.701385 313.135345,260.629761 
	C311.082153,260.536865 309.205719,261.184662 306.930359,261.703491 
	C305.749725,261.657654 304.951355,261.451111 304.210785,261.090790 
	C298.433289,258.279755 298.435516,258.275177 293.052002,259.004211 
	C289.725342,258.240845 286.851135,257.901031 284.381897,260.374146 
	C282.669342,262.089355 280.785614,261.665192 278.985779,260.455841 
	C277.191498,259.250183 275.189484,258.480286 272.947388,257.357330 
	C272.210205,256.487671 271.998047,255.774399 271.902222,254.650467 
	C271.757294,253.171280 273.557343,251.239349 270.375763,251.480484 
	C267.841553,251.672592 266.438080,249.861084 266.174866,247.433578 
	C265.886871,244.777847 267.758728,244.043243 269.908081,243.729965 
	C273.525024,243.202774 274.798035,240.680008 272.885773,238.084503 
	C270.140259,234.357986 270.149170,230.908432 271.540161,226.896973 
	C272.007782,225.548340 271.900635,223.922348 270.822815,222.116272 
	C268.936707,224.035217 265.008270,223.260193 265.121918,227.616455 
	C265.152374,228.783096 263.416168,229.149582 262.263733,229.127365 
	C259.271271,229.069687 258.142365,230.768478 257.721863,233.758575 
	C256.574066,235.734619 255.237244,236.831329 252.830658,236.689056 
	C252.251678,236.482574 252.040649,236.360840 251.614532,235.956543 
	C250.613403,235.040405 251.522964,232.869308 249.111023,233.628510 
	C245.337875,235.936905 242.165543,232.716736 238.443146,233.070404 
z"/>
<path fill="#7AB30F" opacity="1.000000" stroke="none" 
	d="
M722.433105,479.386932 
	C729.020813,500.937592 735.385742,522.137207 742.033630,543.247620 
	C743.204590,546.966248 742.581848,547.943787 738.770264,547.843506 
	C731.277222,547.646423 723.771362,547.638062 716.279175,547.847717 
	C713.192749,547.934021 711.996399,546.811462 711.122742,543.905212 
	C704.558044,522.068542 697.714600,500.315552 691.182739,478.469330 
	C690.178223,475.109863 688.684570,474.072906 685.261047,474.095734 
	C663.433899,474.241425 641.604858,474.236511 619.777527,474.106140 
	C616.389221,474.085907 614.835144,475.057709 613.846497,478.470245 
	C607.548889,500.207214 600.931763,521.851440 594.584106,543.574219 
	C593.690430,546.632385 592.431335,547.969849 589.092957,547.856628 
	C582.102783,547.619690 575.086060,547.533447 568.104980,547.881714 
	C563.566528,548.108093 563.209412,546.572144 564.412781,542.744385 
	C571.450134,520.359741 578.343445,497.929688 585.234863,475.499420 
	C601.704773,421.893524 618.167053,368.285187 634.544556,314.651031 
	C635.432251,311.743866 636.811829,310.707214 639.839844,310.773804 
	C648.500427,310.964111 657.175232,311.075073 665.828613,310.769562 
	C669.765442,310.630585 671.316467,312.108612 672.400818,315.712189 
	C680.840942,343.760223 689.464111,371.753174 698.037109,399.761200 
	C706.122864,426.177216 714.216431,452.590881 722.433105,479.386932 
z"/>
<path fill="#643E1A" opacity="1.000000" stroke="none" 
	d="
M439.113892,349.713562 
	C456.371796,361.834900 470.555786,376.128815 473.781891,397.506897 
	C476.843781,417.797089 467.434174,436.057892 446.385712,438.225342 
	C437.490295,439.141357 429.324768,435.802399 421.389191,432.271759 
	C412.526093,428.328491 404.502167,422.936035 396.716614,417.189972 
	C394.884644,415.837921 393.178009,414.396606 391.912506,417.899872 
	C383.030609,442.488678 376.382690,467.530640 377.282593,493.957794 
	C377.612823,503.655762 379.736145,513.136841 383.458801,522.141357 
	C387.850281,532.763672 395.976440,539.560364 406.465759,543.773682 
	C407.633118,544.242615 409.146484,544.172668 409.834015,546.367004 
	C401.369904,547.620911 393.496124,546.155579 386.077484,542.554810 
	C368.957794,534.245422 357.220001,520.350403 347.569885,504.462189 
	C344.637390,499.634094 342.020691,494.588287 340.683167,488.618958 
	C338.294312,478.388214 340.485657,468.657257 341.783295,458.996460 
	C345.124817,434.118835 352.129883,410.423370 366.967316,389.732056 
	C381.451111,369.533936 400.213959,355.296753 425.002747,350.233704 
	C429.441833,349.326996 434.068939,347.638000 439.113892,349.713562 
z"/>
<path fill="#643F1E" opacity="1.000000" stroke="none" 
	d="
M94.741913,361.506226 
	C96.072945,361.181549 97.153122,361.090210 98.620583,361.137665 
	C100.374428,362.425903 101.602394,363.731537 103.344269,364.887909 
	C103.769814,365.419739 103.865143,365.893768 103.823593,366.710876 
	C102.649178,367.094543 102.187050,368.074493 101.064484,368.615295 
	C100.259232,368.972290 99.600952,368.838379 99.245644,369.290070 
	C99.129234,369.437988 99.527702,369.707825 100.163727,369.755005 
	C101.703033,370.452728 101.940529,371.967712 103.360901,372.760315 
	C104.590263,378.606110 104.025879,384.432800 104.056267,390.238556 
	C104.150452,408.228882 104.073135,426.220062 104.134636,444.210693 
	C104.139908,445.752716 103.427368,447.480743 105.171745,449.427277 
	C109.746658,442.721313 114.028854,436.093567 118.660057,429.719452 
	C134.802032,407.502533 151.080078,385.384491 167.253738,363.190430 
	C168.609970,361.329376 170.241989,360.887604 172.392166,360.916992 
	C179.054123,361.008087 185.718567,360.907471 192.381119,360.973236 
	C193.592468,360.985168 195.390198,360.257446 195.821106,361.928619 
	C196.027847,362.730316 194.990616,363.979370 194.307983,364.864899 
	C183.945633,378.307434 173.545395,391.720734 163.160812,405.146088 
	C155.116898,415.545441 147.182938,426.032349 138.981232,436.305573 
	C136.589386,439.301575 136.787109,441.470825 138.737564,444.642975 
	C158.610992,476.964935 178.316956,509.389862 198.035660,541.806763 
	C198.948975,543.308167 200.445877,544.619812 200.142258,547.085632 
	C192.179749,547.085632 184.215149,547.024658 176.252441,547.120239 
	C173.634872,547.151672 172.990997,545.199768 171.993088,543.533691 
	C156.003036,516.836975 140.026596,490.132019 124.034775,463.436310 
	C122.762749,461.312866 121.400925,459.243195 119.759811,456.639130 
	C114.572449,463.054016 109.691185,469.059326 104.851570,475.097992 
	C103.706451,476.526886 104.117630,478.288971 104.116394,479.931458 
	C104.100693,500.754181 104.008278,521.577637 104.179367,542.398926 
	C104.210182,546.148254 103.170799,547.403931 99.408531,547.153198 
	C94.765121,546.843689 90.076027,546.908264 85.423836,547.146484 
	C82.096107,547.316833 80.807236,546.495056 80.815506,542.801208 
	C80.946678,484.165344 80.927185,425.529114 81.084564,366.443054 
	C85.516655,364.164581 90.628281,364.899231 94.741913,361.506226 
z"/>
<path fill="#643F1D" opacity="1.000000" stroke="none" 
	d="
M220.639572,533.971680 
	C220.639435,475.339722 220.635956,417.202179 220.631393,359.064667 
	C220.630859,352.321045 220.628052,352.318512 227.418015,352.315613 
	C230.916260,352.314148 234.446625,352.624023 237.904907,352.254547 
	C242.569199,351.756134 244.141098,353.144165 244.079483,358.129578 
	C243.799454,380.781464 243.959702,403.438812 243.961533,426.094177 
	C243.961655,427.671265 243.961548,429.248322 243.961548,432.065887 
	C248.588150,426.957062 252.087143,422.660095 256.631195,419.323944 
	C280.848145,401.544037 312.960754,411.947205 321.876678,440.595978 
	C324.323944,448.459564 325.145538,456.542419 325.134644,464.750122 
	C325.100311,490.570526 325.019196,516.391663 325.206299,542.210693 
	C325.235504,546.237671 324.109680,547.476624 320.180206,547.145813 
	C316.210419,546.811523 312.190247,547.099243 308.192444,547.069580 
	C301.159027,547.017395 301.686371,548.106445 301.681213,540.797485 
	C301.663452,515.643372 301.671722,490.489258 301.635681,465.335205 
	C301.627075,459.309540 301.004517,453.373413 298.758331,447.691162 
	C291.394348,429.061920 269.210571,424.275482 254.823074,438.380646 
	C247.613663,445.448547 243.942139,454.176056 243.951630,464.377625 
	C243.975647,490.198090 243.880371,516.019104 244.052048,541.838440 
	C244.078613,545.835083 243.273605,547.534790 238.907883,547.179810 
	C233.942917,546.776062 228.918961,547.006104 223.923660,547.108154 
	C221.613541,547.155334 220.562119,546.358765 220.637283,543.960266 
	C220.736359,540.798645 220.645264,537.631104 220.639572,533.971680 
z"/>
<path fill="#7BB410" opacity="1.000000" stroke="none" 
	d="
M776.473145,502.999908 
	C776.469299,440.699005 776.528503,378.897919 776.342957,317.097565 
	C776.327820,312.060059 777.504395,310.345093 782.670898,310.715851 
	C789.300537,311.191559 795.992126,310.970276 802.650696,310.802368 
	C805.665039,310.726288 806.819824,311.688782 806.710022,314.778595 
	C806.520813,320.102386 806.661194,325.437805 806.661255,330.768341 
	C806.662109,400.898224 806.663513,471.028076 806.661133,541.157959 
	C806.660950,547.799194 806.649536,547.796387 800.227112,547.795166 
	C793.730530,547.793945 787.229797,547.661926 780.739075,547.858154 
	C777.414734,547.958679 776.412720,546.670105 776.439697,543.478394 
	C776.552368,530.153076 776.478394,516.826233 776.473145,502.999908 
z"/>
<path fill="#7BB212" opacity="1.000000" stroke="none" 
	d="
M439.317017,349.552917 
	C404.132812,351.598816 379.691864,370.391571 362.220459,399.697662 
	C351.064789,418.409851 345.799255,439.104340 342.924255,460.521545 
	C341.729889,469.418976 340.952423,478.329987 340.772339,487.768982 
	C336.071930,477.717560 334.544586,466.485474 333.867889,455.243134 
	C332.588989,433.995575 334.300354,412.945648 341.732330,392.806976 
	C347.734192,376.543365 356.972321,362.291992 369.633545,350.210571 
	C383.357208,337.115326 396.468445,323.382477 409.080353,309.213104 
	C430.268860,285.408081 432.523560,257.427917 416.099915,230.057846 
	C408.265930,217.002472 398.385162,205.514374 389.010986,193.641159 
	C381.255920,183.818710 374.786316,173.178375 368.233398,162.576096 
	C367.822266,161.910919 367.836853,160.982635 367.612305,159.812653 
	C367.610443,159.100708 367.649780,158.752899 368.210297,158.342514 
	C378.796112,172.998718 390.464783,186.351501 402.947388,199.059906 
	C413.237488,209.536163 422.318451,220.945221 429.409668,233.944229 
	C444.753571,262.071411 442.966553,289.134033 425.037567,315.366516 
	C421.092407,321.138855 416.788666,326.664886 412.772186,332.390076 
	C409.812408,336.608948 410.254700,337.805328 415.180756,339.567169 
	C423.300232,342.471161 431.881500,344.221985 439.317017,349.552917 
z"/>
<path fill="#66401F" opacity="1.000000" stroke="none" 
	d="
M523.716797,451.000122 
	C523.715515,468.323090 523.671082,485.146271 523.747009,501.968903 
	C523.763550,505.620239 523.975586,509.304321 524.505554,512.913452 
	C526.117615,523.891174 531.830139,528.429871 542.968018,528.090454 
	C546.250000,527.990417 550.374207,525.742859 552.549011,527.870544 
	C554.835022,530.106995 553.632996,534.519226 553.856018,537.979797 
	C554.320984,545.194092 554.148560,545.424866 547.057312,546.526611 
	C540.284912,547.578796 533.460815,547.903992 526.647339,546.911804 
	C512.040771,544.784729 502.714966,533.658203 501.095856,516.766174 
	C499.629608,501.468933 500.478607,486.140747 500.307770,470.827332 
	C500.172180,458.669647 500.163696,446.507568 500.346619,434.351166 
	C500.402985,430.602142 499.565796,428.786102 495.380859,429.203308 
	C491.752655,429.565033 488.054901,429.163422 484.396759,429.314209 
	C481.850037,429.419189 481.016418,428.561890 480.897949,425.921570 
	C480.251770,411.524170 480.179993,411.314453 494.359161,411.634491 
	C499.254059,411.744995 500.651764,410.231842 500.394409,405.483124 
	C500.007294,398.341431 500.408569,391.160431 500.207428,384.003632 
	C500.121002,380.929230 501.158081,379.544617 504.200470,378.897003 
	C509.074310,377.859558 513.925903,376.581238 518.640930,374.975922 
	C522.574097,373.636749 523.933044,374.361450 523.804749,378.745972 
	C523.531921,388.065674 523.869019,397.402588 523.635071,406.724396 
	C523.543457,410.374725 524.510681,411.721497 528.353516,411.585297 
	C536.171997,411.308228 544.009033,411.601776 551.835205,411.469147 
	C554.774902,411.419342 556.133118,412.257019 555.914673,415.427399 
	C555.686279,418.743011 555.676086,422.099731 555.913452,425.413910 
	C556.140991,428.591431 554.808716,429.385437 551.859314,429.328674 
	C543.867310,429.174835 535.866272,429.423035 527.877197,429.204987 
	C524.518616,429.113281 523.549744,430.306458 523.665039,433.512268 
	C523.868469,439.168182 523.718750,444.836823 523.716797,451.000122 
z"/>
<path fill="#7CB411" opacity="1.000000" stroke="none" 
	d="
M380.647217,94.473412 
	C381.268585,92.710373 382.528809,91.410873 383.738892,90.066238 
	C384.740814,88.952927 386.153198,87.576607 385.142792,86.177376 
	C383.985291,84.574516 382.036285,85.368843 380.572327,86.134827 
	C378.662842,87.133934 376.829346,88.312248 375.078552,89.573570 
	C371.706177,92.003120 368.275116,94.382736 365.130402,97.087669 
	C362.193237,99.614075 360.442413,98.508957 358.813354,95.747971 
	C355.093262,89.443031 354.226776,82.630249 355.270752,75.510429 
	C356.722076,65.612411 361.127960,57.061642 368.244598,50.195839 
	C386.203674,32.869759 408.081055,24.009974 432.785309,24.354042 
	C451.797485,24.618832 467.373810,33.842388 480.072327,48.947777 
	C479.435822,49.270443 479.031403,49.616306 478.586212,49.680809 
	C461.916565,52.096016 452.578186,62.820187 447.405884,77.794174 
	C441.871094,93.817467 436.869202,110.024139 431.515076,126.110962 
	C429.989044,130.695862 427.774017,134.992661 424.314087,138.863358 
	C423.528534,138.944427 423.071503,138.793427 422.607086,138.751755 
	C422.135620,138.709457 421.414276,138.185257 421.296814,139.084305 
	C421.267853,139.306061 422.101288,139.408859 422.788055,139.799088 
	C409.895538,155.572327 395.745667,156.891586 381.864716,146.647522 
	C381.794830,146.139282 381.896759,145.919281 382.316132,145.525543 
	C386.017487,146.124496 389.385712,145.221848 392.992310,147.243317 
	C396.220978,149.052963 400.853699,146.492447 404.737061,145.584320 
	C406.481812,145.176285 406.876038,142.280960 404.443115,140.812408 
	C402.141205,139.422913 401.796631,137.120743 401.461639,134.788757 
	C401.075287,132.098785 402.051300,129.996567 404.732513,129.434677 
	C407.775696,128.796936 408.787750,130.969727 409.181000,133.537628 
	C409.305389,134.349915 409.278046,135.213394 410.055603,136.096207 
	C412.323883,135.211823 413.121368,134.015137 412.282410,131.288208 
	C410.648315,125.976654 410.423889,120.824081 415.648712,116.901268 
	C417.849762,115.248688 417.815308,112.509285 417.752777,109.980675 
	C417.680298,107.050224 418.843597,105.348793 421.898651,104.789223 
	C424.328430,104.344193 426.603729,103.276459 428.915192,102.320381 
	C432.750092,100.734192 434.438843,98.304962 433.937958,94.228951 
	C433.636963,91.779602 435.015900,89.746727 435.723938,87.544601 
	C436.178558,86.130562 435.811981,84.825653 434.427155,84.133575 
	C432.811646,83.326218 431.938446,84.367348 431.357697,85.707993 
	C430.680267,87.271812 430.081085,88.925629 427.884216,88.572212 
	C426.409760,88.335022 425.548065,87.326508 425.199005,85.936279 
	C424.715790,84.011749 425.145935,82.393875 426.719788,81.004265 
	C431.686279,76.619324 436.957947,74.103928 443.163055,78.177483 
	C443.902283,77.191620 443.733398,76.533440 443.538361,75.914207 
	C442.228149,71.754478 440.308105,68.104706 446.151245,64.908821 
	C450.364014,62.604668 449.576263,59.710239 445.209473,57.263905 
	C440.300598,54.513908 435.499329,51.726955 431.420105,47.682659 
	C428.901215,45.185356 428.740234,43.465130 431.197052,41.071411 
	C434.476685,37.875980 438.095825,35.902527 443.202454,36.828262 
	C440.317780,33.654251 438.210114,29.340912 433.893219,28.637045 
	C429.809448,27.971191 426.044739,29.997519 424.172455,34.200634 
	C422.262238,38.488922 417.975616,39.620647 414.308014,41.272575 
	C411.334351,42.611950 408.439728,39.077534 409.066223,35.472630 
	C409.338928,33.903507 410.588623,32.940697 411.421814,31.089699 
	C406.356262,33.361530 400.983124,33.808826 397.033936,37.645866 
	C396.330414,38.329445 395.301270,38.801861 394.322571,38.853474 
	C386.156219,39.284107 380.843872,45.192074 374.990448,49.571594 
	C371.833435,51.933678 369.461761,56.343086 369.183289,60.712093 
	C368.877655,65.506393 367.587952,68.828690 362.265015,69.287086 
	C360.954193,69.399971 359.507507,70.274216 360.622223,71.455589 
	C365.589905,76.720398 364.689270,82.947289 364.073059,89.201767 
	C364.031891,89.619331 364.105469,90.170944 364.956177,90.519218 
	C365.233032,86.270454 365.622803,82.004623 371.463013,81.623177 
	C372.013977,81.990593 372.188324,82.277893 372.433624,82.463005 
	C373.433655,83.217659 372.460327,85.063072 374.074554,85.416115 
	C374.292450,85.463768 374.611206,85.065651 374.704681,84.763916 
	C375.449280,82.359863 372.656219,83.396210 371.919800,81.917664 
	C370.181274,78.785439 368.730438,75.939949 371.807556,73.106339 
	C372.841522,72.154205 372.054108,71.237076 371.361481,70.552536 
	C368.305054,67.531715 369.282013,63.721390 369.416168,60.164059 
	C369.498962,57.968456 371.005554,56.444817 373.332611,56.395157 
	C375.664215,56.345398 375.598969,58.342369 375.980621,59.941605 
	C376.554199,62.344807 377.107208,64.753258 377.875488,67.171715 
	C378.899811,63.862526 379.122528,60.454010 377.929352,57.214935 
	C376.465973,53.242359 377.657684,50.437721 380.911346,48.162567 
	C381.320038,47.876785 381.674866,47.508129 382.097382,47.248814 
	C384.234222,45.937286 385.918610,42.291710 388.694489,44.075432 
	C391.517181,45.889229 390.397736,49.559502 389.863617,52.439499 
	C389.169891,56.180321 387.266235,59.612885 387.091705,63.540859 
	C386.984467,65.954384 387.771820,66.693375 390.158966,66.817444 
	C402.082947,67.437149 402.702423,68.517632 397.848480,79.309898 
	C397.055817,81.072365 396.990753,83.340866 394.224640,84.044296 
	C393.239166,84.240196 392.587769,84.232605 391.953522,84.347313 
	C390.953125,84.528229 390.023407,84.837654 390.169586,86.138916 
	C390.246063,86.819710 390.683655,87.313507 391.274933,87.633812 
	C392.423462,88.255989 393.079987,87.616180 393.579163,86.672913 
	C393.880615,86.103249 394.109863,85.496689 394.659180,84.650909 
	C398.143890,83.092834 403.211243,85.708946 404.507812,89.332893 
	C405.445038,91.952408 403.647278,94.781059 399.937988,95.687439 
	C397.578033,96.264122 396.571991,97.469254 396.274445,99.706184 
	C396.058167,101.331985 395.967041,103.227074 393.847321,103.590263 
	C391.787170,103.943237 391.024475,102.184998 390.082336,100.855003 
	C387.888214,97.757607 385.201294,95.415649 380.647217,94.473412 
z"/>
<path fill="#7CB310" opacity="1.000000" stroke="none" 
	d="
M247.312683,61.132935 
	C242.163910,60.938187 238.077682,59.372490 235.312271,55.165348 
	C234.886200,54.517151 234.639038,53.036850 233.873550,53.472637 
	C229.333450,56.057358 224.323959,54.052723 219.685883,55.185318 
	C218.579239,55.455559 217.574188,56.105095 216.356796,55.893314 
	C215.475403,55.739986 214.684753,55.313984 214.503662,54.471035 
	C214.275116,53.407261 215.188126,53.254204 216.011353,52.990566 
	C217.635208,52.470528 220.300385,52.277061 217.264008,49.485352 
	C224.623993,48.751141 231.940170,50.549698 239.647827,51.882309 
	C240.307617,52.624977 240.687988,53.086124 241.706268,52.777641 
	C267.189636,57.025364 290.571716,65.982353 311.825745,80.331535 
	C328.173187,91.368141 341.337219,105.102501 348.382904,123.888573 
	C352.369263,134.517456 354.452148,145.337036 349.925293,156.438324 
	C347.470551,162.458176 345.017670,163.484329 339.157745,160.650162 
	C327.941315,155.225311 316.742126,149.764923 305.308411,144.057632 
	C304.687042,143.277985 304.524231,142.337173 303.259644,143.064957 
	C301.075989,143.931427 298.196899,143.574615 297.780914,146.241547 
	C297.307434,149.277084 300.042877,150.327347 302.178680,151.593491 
	C304.174561,152.776703 306.139862,154.011475 308.291748,155.530945 
	C304.840729,155.507294 300.124451,157.975296 298.702301,151.972305 
	C298.554657,151.349091 297.709167,150.920837 297.071075,151.339264 
	C296.605316,151.644699 296.233856,152.308517 296.109222,152.876022 
	C295.830872,154.143616 296.703827,155.043396 297.354919,156.007080 
	C298.054169,157.042038 297.550598,157.883057 296.801514,158.642120 
	C296.209290,159.242249 295.577698,159.818512 294.646576,159.515350 
	C290.954193,158.313065 288.887573,149.481598 291.642517,146.608276 
	C293.042938,145.147659 293.715393,143.108826 291.125549,143.222351 
	C286.524353,143.424057 282.109711,141.048325 277.367859,142.821106 
	C274.963806,143.719879 272.826294,144.638336 271.013672,146.446457 
	C269.554718,147.901764 268.164185,150.186523 265.650330,148.042435 
	C263.327148,146.060974 263.190094,143.222000 265.038330,141.381485 
	C268.092743,138.339874 270.606293,134.807266 273.765717,131.938278 
	C276.398743,129.547302 279.514160,129.271194 282.950256,131.200653 
	C285.549500,132.660202 288.819519,134.124161 289.895996,129.095657 
	C290.539551,126.089340 292.239410,126.937531 293.837769,128.363388 
	C297.058655,131.236618 298.131836,128.807861 298.911255,126.216606 
	C299.468628,124.363716 298.082886,121.122742 299.821228,120.676384 
	C303.502625,119.731125 306.871490,116.548286 311.266052,118.455620 
	C311.063873,122.611107 306.615143,123.977303 305.136719,127.681389 
	C306.212982,134.362030 300.237915,135.986740 297.141785,139.635269 
	C299.933380,137.188782 303.986053,137.460220 306.482239,134.738327 
	C306.909363,134.272583 307.713440,134.734558 308.072205,135.659531 
	C308.038788,137.354950 308.005646,138.963104 309.868591,138.916550 
	C315.614807,138.772934 319.538422,142.673508 324.134888,145.090790 
	C324.839996,145.461594 325.735168,146.084244 326.352783,145.911667 
	C331.588898,144.448410 334.470947,147.894272 337.567291,151.025391 
	C338.440063,151.907974 339.271912,153.347870 340.878174,152.329895 
	C342.012787,151.610794 342.320648,150.270660 341.825470,149.224823 
	C340.026367,145.425049 341.275818,142.017029 343.231720,138.906967 
	C344.861298,136.315720 344.706024,133.261536 346.165192,130.585342 
	C347.373260,128.369629 345.014252,126.673279 343.186035,125.683235 
	C340.159180,124.044098 338.243500,121.847214 336.879822,118.576431 
	C335.462891,115.177872 335.676605,113.277534 340.139984,112.300926 
	C337.760376,110.708252 335.424866,109.647942 335.853729,106.588989 
	C336.037445,105.278763 334.257782,103.414322 333.492767,104.644974 
	C331.806427,107.357605 328.576782,108.889267 327.581146,111.583328 
	C326.603638,114.228256 327.674988,117.188896 330.726654,119.080162 
	C332.866852,120.406540 331.960907,125.909760 329.514709,127.889397 
	C326.857239,130.039993 325.044891,128.899490 323.509033,126.274506 
	C322.957153,125.331329 321.863037,124.673981 320.943451,123.983253 
	C318.136353,121.874725 315.837189,119.826981 321.034973,117.849434 
	C322.914062,117.134514 322.760956,115.882378 322.238159,114.216766 
	C321.670410,112.407982 320.620178,111.550514 318.963776,112.200714 
	C316.524323,113.158295 314.587799,112.377647 314.496399,110.090042 
	C314.394196,107.532745 317.053436,107.868553 318.749878,108.057129 
	C323.051086,108.535255 326.296173,107.556465 327.534851,102.910614 
	C327.800415,101.914574 328.205872,100.898582 327.033417,100.333176 
	C326.166290,99.914993 325.467987,100.383850 325.082550,101.288498 
	C323.861298,104.154640 321.889496,102.817207 320.782196,101.584038 
	C319.132385,99.746681 320.678314,98.629211 322.438599,98.010391 
	C323.880737,97.503410 324.315247,96.498116 323.512970,95.322266 
	C321.327576,92.119370 318.442749,89.453529 315.944397,86.518921 
	C314.803253,85.178505 311.990631,84.566681 310.306610,82.920868 
	C309.416534,82.051041 308.144745,81.570198 307.358459,82.937218 
	C306.765564,83.968002 306.807312,85.277046 308.292389,85.795586 
	C309.636108,86.264778 312.341461,86.635452 311.452515,87.971954 
	C309.653137,90.677315 311.315674,93.409790 310.319092,95.906998 
	C310.177429,96.262070 309.406769,96.724823 309.141296,96.615921 
	C306.681335,95.606895 304.602173,93.965912 302.779358,92.090813 
	C301.458496,90.732079 302.149231,89.416908 303.455078,88.257812 
	C306.008057,85.991768 302.736206,84.253616 302.544922,82.202957 
	C302.354492,80.161705 300.235596,82.392876 298.941315,82.487289 
	C297.434998,82.597176 294.144592,84.695839 296.484314,80.271538 
	C297.138580,79.034271 296.046814,77.059509 295.066406,76.906525 
	C290.182312,76.144379 288.881561,70.828178 284.748138,69.186935 
	C283.702850,68.771889 282.821259,67.594688 281.661316,68.473808 
	C280.571289,69.299973 280.166779,70.484726 280.461700,72.003883 
	C280.974426,74.644905 282.433685,78.892632 279.183441,79.264908 
	C275.034546,79.740120 276.381805,75.049835 275.856049,72.346863 
	C275.803925,72.078773 275.472382,71.865036 275.023407,71.333549 
	C273.625153,72.477562 272.598633,73.804276 271.975586,75.526192 
	C271.050598,78.082710 269.101715,79.008034 266.501526,78.690941 
	C261.738342,78.110054 257.781158,79.698975 254.844238,83.401878 
	C252.914200,85.835297 250.547302,87.223366 248.103378,85.148201 
	C245.822144,83.211197 247.369003,80.948334 248.731445,78.577179 
	C251.013519,74.605522 255.488846,72.313454 256.860657,67.329010 
	C257.126648,66.894341 257.243805,66.775314 257.376068,66.676468 
	C260.142670,64.608673 262.364471,68.713081 264.741791,67.489670 
	C266.729431,66.466805 266.793610,62.669079 270.664185,63.757771 
	C265.706299,60.246613 261.803925,64.417427 257.270813,64.220230 
	C257.001221,63.999008 257.000000,63.499634 256.998779,63.249950 
	C254.679138,58.067665 251.185425,59.487736 247.312683,61.132935 
z"/>
<path fill="#7CB310" opacity="1.000000" stroke="none" 
	d="
M163.223907,65.737289 
	C162.448746,68.796143 165.004608,71.617126 162.545441,74.566612 
	C161.598328,75.702560 164.091278,76.312431 164.820023,77.338020 
	C165.505295,78.302444 166.493210,79.266159 165.431534,80.380157 
	C164.359543,81.504982 163.297958,80.649750 162.407867,79.856186 
	C161.662872,79.191971 160.994751,78.441971 160.255844,77.770370 
	C159.543259,77.122696 158.797058,75.915092 157.801315,76.510193 
	C156.404434,77.345001 157.261581,78.533783 157.979263,79.458046 
	C159.022415,80.801476 158.945297,81.905426 157.366806,82.677330 
	C156.283432,83.207115 148.808197,79.185806 148.607407,77.856354 
	C148.506317,77.186928 148.642075,76.492271 147.907455,76.266861 
	C146.952408,75.973824 146.267456,76.485901 146.068878,77.420227 
	C145.642960,79.424065 144.096054,80.065559 142.415771,80.288170 
	C137.368729,80.956825 133.436142,84.803856 128.280701,85.157822 
	C127.705360,85.197319 126.814766,85.679840 126.669968,86.143967 
	C125.683197,89.306915 124.435646,90.626083 121.052223,88.319633 
	C119.531708,87.283119 117.921555,89.132614 117.326195,90.732964 
	C116.622505,92.624527 118.371262,92.576591 119.526802,93.187645 
	C122.027405,94.509979 124.737526,96.199776 124.686333,99.329941 
	C124.634537,102.496826 120.764526,99.794456 119.270241,102.489937 
	C122.744843,102.212463 124.934319,106.499962 129.208191,102.524399 
	C132.065613,99.866432 132.980331,103.753723 132.526672,107.157928 
	C134.513809,102.273422 139.366638,100.587288 140.775940,96.042801 
	C141.366135,94.139633 143.670547,93.102661 145.719711,94.808868 
	C146.893509,95.786224 147.676315,95.721886 148.706146,94.790886 
	C149.775894,93.823814 150.934494,92.256531 152.361099,94.176346 
	C153.432648,95.618317 153.353912,97.419289 152.368057,98.874855 
	C151.356903,100.367775 150.170547,101.916023 148.079590,101.954521 
	C145.929596,101.994110 143.641891,102.474922 143.563644,104.816460 
	C143.500549,106.705093 145.833298,106.756607 147.441208,107.074226 
	C148.068848,107.198227 148.760300,107.449028 149.226196,107.863136 
	C151.129074,109.554451 153.861221,111.741425 155.650681,110.185249 
	C157.609848,108.481491 160.837143,106.216202 159.300491,102.358566 
	C159.136749,101.947495 159.161713,101.307861 159.372467,100.924538 
	C161.676941,96.732971 170.536194,96.569031 173.353638,100.609215 
	C174.681885,102.513924 176.215652,104.282036 177.455856,106.239067 
	C178.287659,107.551697 178.379227,109.157509 177.405045,110.472137 
	C176.833206,111.243782 175.784561,111.973106 174.803497,111.498497 
	C173.519104,110.877151 173.251617,109.464333 173.021072,108.128860 
	C172.764923,106.645279 173.741425,104.489105 171.211700,104.147156 
	C168.981110,103.845627 168.547760,105.837509 167.914291,107.281387 
	C166.916595,109.555466 165.433899,111.176460 163.020172,111.893112 
	C160.144516,112.746925 160.499435,116.138573 161.586868,116.461830 
	C165.511230,117.628448 165.826065,122.021149 168.981720,123.603783 
	C169.692581,123.960297 170.249237,124.959641 171.144562,124.503166 
	C172.351318,123.887932 171.753555,122.843239 171.477371,121.911385 
	C171.052353,120.477303 170.361343,118.780449 172.458908,118.209984 
	C174.581757,117.632629 175.922577,119.027153 176.719559,120.819061 
	C177.041229,121.542320 176.707794,122.591743 177.092316,123.245941 
	C178.413269,125.493240 177.004959,132.830246 183.139511,126.667450 
	C183.814621,125.989243 184.718155,126.312714 185.308395,127.050507 
	C186.360931,128.366104 185.839661,129.526047 184.864655,130.603256 
	C181.515015,134.304031 182.614029,137.499832 185.962143,140.457809 
	C186.999207,141.374023 188.029541,142.439346 189.170288,140.636856 
	C190.380981,138.723816 192.396683,139.414337 194.072601,138.921783 
	C198.055496,137.751221 200.744858,138.241959 201.549164,142.926178 
	C201.808044,144.433838 202.924881,144.835754 204.603241,144.330658 
	C207.306915,143.517029 209.315155,144.799606 211.014084,146.973648 
	C214.200302,151.050858 215.373093,150.929825 218.207642,146.552933 
	C220.862854,142.452927 224.258026,142.044006 226.956940,145.536453 
	C228.229462,147.183121 228.500412,148.929489 225.816864,148.881454 
	C222.728821,148.826187 220.326080,149.666794 218.368134,152.031891 
	C217.696106,152.843658 216.658844,153.138336 215.635605,152.738770 
	C212.716492,151.598877 211.991791,153.250412 212.043442,155.623764 
	C212.097046,158.087341 213.387665,160.253387 215.921677,159.711182 
	C219.943375,158.850647 220.204376,160.521988 219.669571,163.659576 
	C219.034958,167.382721 221.620667,168.432663 224.536255,169.070511 
	C225.786560,169.344040 226.824203,169.962402 226.781174,171.329788 
	C226.717194,173.363083 225.018494,172.849426 223.392044,172.996063 
	C220.339157,171.850037 217.999908,170.132111 214.734482,172.330582 
	C212.526581,173.817047 210.325928,171.955872 210.105118,169.506592 
	C209.699570,165.008362 207.403259,163.448120 202.878937,163.858215 
	C201.447861,163.662903 201.139954,161.680679 199.814728,162.453445 
	C199.329407,162.736465 199.982880,163.605927 200.396667,164.476547 
	C200.628189,164.994736 200.706039,165.211288 200.850067,165.771591 
	C200.972336,166.838913 200.859802,167.531433 200.289307,168.446503 
	C194.834274,160.827332 190.539429,152.368546 184.599945,144.942657 
	C166.424850,122.219040 142.300949,109.567032 114.432358,103.163322 
	C111.354286,102.456039 108.299316,101.635704 105.202332,101.027077 
	C102.554077,100.506622 102.615234,99.330940 104.250450,97.744560 
	C123.494637,79.075104 143.927414,62.204762 170.631256,54.358845 
	C171.929840,56.202190 170.462463,56.848286 169.340271,57.191742 
	C165.182663,58.464199 163.408905,61.289619 163.223907,65.737289 
z"/>
<path fill="#7CB310" opacity="1.000000" stroke="none" 
	d="
M328.768860,200.312958 
	C329.186340,198.169174 328.757385,196.445221 328.046661,194.383881 
	C328.533295,193.364288 329.025482,192.491943 329.823364,192.362930 
	C335.513977,191.442825 333.241669,186.795898 333.492950,183.770309 
	C333.700470,181.271179 330.533630,182.716629 328.554688,181.418976 
	C328.434814,179.622589 330.635101,178.655258 329.680450,177.128738 
	C328.356079,175.011108 327.329437,177.909210 326.014893,177.801422 
	C322.380066,177.503311 325.050964,174.060837 323.140289,172.503464 
	C321.484833,173.857727 318.721466,173.774612 317.835541,176.688950 
	C317.259766,178.582932 315.764282,177.679855 314.503448,177.339569 
	C313.714722,177.126694 312.850677,177.202759 312.051910,177.015121 
	C310.448761,176.638519 307.962860,179.484955 307.416260,176.721390 
	C306.825897,173.736771 310.287872,172.847382 312.434052,172.246475 
	C314.628418,171.632065 316.993988,171.793625 318.835419,170.048676 
	C320.121552,168.829895 319.201996,167.199051 318.421692,167.590652 
	C313.740723,169.939835 311.726044,164.418915 307.529602,164.305725 
	C302.907959,164.181076 301.768097,163.978561 302.490204,168.907089 
	C302.631165,169.869034 303.326569,171.127151 302.085541,171.438553 
	C300.638062,171.801743 300.294891,170.412308 300.044800,169.213104 
	C298.946075,163.944855 300.224426,161.947098 305.741180,161.018478 
	C308.089630,160.623169 308.522095,158.975098 309.154388,156.790451 
	C329.596893,168.596115 346.909637,183.115906 348.758667,209.585251 
	C348.225616,210.505081 347.677704,210.821442 347.094971,211.102203 
	C346.216064,211.525650 345.241058,212.017334 345.378418,213.151947 
	C345.572174,214.752579 347.126251,214.158646 348.323425,214.787704 
	C346.680756,233.595016 338.182404,248.295837 322.318726,258.890442 
	C321.374878,259.269073 320.183380,257.898590 320.142578,259.855103 
	C314.467285,264.417938 307.787781,266.120514 300.396912,266.837097 
	C298.835541,262.132751 302.495972,262.048187 305.624573,261.058044 
	C308.715118,260.196289 311.116547,257.730103 314.493622,260.046112 
	C311.991516,252.039856 311.903473,252.144012 304.616058,252.855927 
	C299.253326,253.379807 293.876007,251.014328 288.413483,252.802643 
	C287.440582,253.121140 285.486237,252.436890 285.553894,250.773911 
	C285.623474,249.063583 287.290497,248.974380 288.615814,249.034302 
	C291.908203,249.183228 295.240417,248.488922 298.494141,249.659042 
	C300.066498,250.224518 302.079346,250.602371 303.337067,249.609070 
	C310.035126,244.319153 314.484680,251.293869 319.928467,252.586716 
	C320.579834,252.741425 321.187164,253.819626 322.293793,253.420197 
	C324.063934,252.781235 326.340942,255.417114 327.686584,252.890121 
	C328.879700,250.649658 327.383087,248.660172 325.978760,247.046310 
	C323.422577,244.108643 322.884552,240.200348 320.982666,236.903290 
	C319.452057,234.249908 322.919067,230.945251 324.771515,228.670197 
	C326.363434,226.715073 328.534454,229.541367 329.242157,231.038818 
	C330.705994,234.136353 333.656891,234.878738 336.122620,236.387650 
	C337.586304,237.283401 339.324219,237.527023 340.710968,236.162155 
	C341.915588,234.976501 341.941711,233.549606 341.044098,232.075027 
	C340.251526,230.773010 339.867188,229.336472 340.002991,227.397766 
	C340.811462,224.648529 344.889679,224.028412 343.231567,220.242584 
	C340.517639,219.644989 340.691376,217.697357 341.202423,216.220169 
	C342.269409,213.136017 341.893707,210.017990 342.000458,206.451797 
	C340.591766,204.329514 339.196106,202.636597 336.323547,202.996674 
	C335.554871,202.996735 335.110962,202.996643 334.334137,202.996414 
	C331.894592,202.863297 328.437653,205.843475 328.768860,200.312958 
z"/>
<path fill="#7CB310" opacity="1.000000" stroke="none" 
	d="
M238.173935,233.284485 
	C240.301483,231.824875 242.519791,231.340363 244.582565,233.103149 
	C245.905731,234.233917 247.059326,233.323685 248.643936,233.037720 
	C250.215164,232.901688 251.012711,233.522018 251.798065,234.755692 
	C251.998169,235.002808 251.998062,235.501709 251.998718,235.751160 
	C253.996628,237.563324 256.851532,238.451050 256.724213,241.725586 
	C256.631226,244.117950 254.600494,246.238571 255.837280,249.285721 
	C257.933014,247.011337 255.715530,242.454559 260.301636,241.825439 
	C262.289307,241.541000 263.674530,240.857208 263.440552,238.965424 
	C263.190979,236.947281 261.232391,237.336716 259.546082,236.807068 
	C258.289551,236.283585 257.631653,235.599243 257.084961,234.357697 
	C257.046661,228.765610 257.046661,228.765610 264.657104,227.366791 
	C262.845062,224.839859 262.228546,222.673492 266.543274,222.964462 
	C267.364014,223.019791 268.148926,222.843735 268.691071,222.018738 
	C269.284973,221.114914 268.615570,218.768845 270.883392,219.704086 
	C272.342377,220.305786 273.026398,221.723557 272.988892,223.382492 
	C272.970062,224.214325 273.133667,225.074905 272.974884,225.874878 
	C272.117279,230.196976 270.792145,234.057205 274.626709,238.331879 
	C277.132294,241.125061 274.627380,244.437973 270.322479,244.934555 
	C268.219849,245.177078 266.392273,245.471832 267.266113,248.034882 
	C267.916809,249.943405 269.191071,251.795166 271.717377,249.847626 
	C272.534546,249.217728 273.579102,248.635254 274.380554,249.565369 
	C275.934906,251.369247 273.264679,251.951035 273.051727,253.649139 
	C271.770233,255.870850 270.996246,257.976166 269.346191,260.188660 
	C272.166809,260.483734 271.587250,258.228485 272.743835,257.231079 
	C277.965912,257.977051 282.837433,261.952728 287.994263,257.111237 
	C288.779724,256.373840 290.910187,256.836609 292.634583,257.844147 
	C293.787109,258.592194 295.111877,259.363403 294.617554,260.232758 
	C292.252106,264.393219 295.971893,264.808472 298.022461,266.583435 
	C279.340424,269.029480 263.359375,263.621429 250.323929,250.020691 
	C245.594711,245.086349 242.193909,239.140335 238.173935,233.284485 
z"/>
<path fill="#7CB411" opacity="1.000000" stroke="none" 
	d="
M381.794250,146.242188 
	C363.537720,138.234909 362.560638,120.861145 369.674561,107.466682 
	C372.226807,102.661209 375.292725,98.015961 379.710266,94.134628 
	C380.030060,94.029411 380.125702,94.125328 380.173492,94.173325 
	C381.318848,95.471375 382.511383,96.587494 383.920654,97.515564 
	C385.889160,98.811897 386.491241,100.765358 385.033813,102.644150 
	C383.420776,104.723450 384.033936,106.300446 384.881531,108.501015 
	C387.525360,115.364784 388.992340,122.513893 386.539948,129.763092 
	C385.786804,131.989410 385.627441,133.179932 387.867737,134.605820 
	C390.739105,136.433411 390.195862,138.771591 387.551575,140.527618 
	C385.570374,141.843292 384.082794,143.592026 382.343506,145.629608 
	C382.104065,145.896042 381.895630,146.125092 381.794250,146.242188 
z"/>
<path fill="#7CB310" opacity="1.000000" stroke="none" 
	d="
M235.885818,189.609467 
	C235.229584,192.627502 232.391296,195.128525 237.402725,197.299393 
	C240.389023,198.593018 239.635803,202.644485 237.262558,204.532303 
	C234.333740,206.862061 234.062103,210.245361 232.535828,213.098633 
	C230.868439,216.215698 235.031845,216.810547 235.628281,219.217926 
	C235.946625,220.502869 237.978607,219.049194 238.944351,218.368698 
	C240.734924,217.107086 242.675949,216.106400 244.213654,218.060501 
	C245.416245,219.588745 247.893097,221.195023 246.488281,223.597977 
	C245.342712,225.557495 244.458038,228.920303 241.210464,227.773849 
	C237.948807,226.622421 238.120941,228.846313 237.236420,230.798309 
	C228.656403,219.786896 221.724808,207.681274 214.483276,195.362793 
	C215.459473,194.522751 216.401627,193.807281 218.037064,193.954544 
	C219.571960,194.241150 220.414856,194.888367 221.292877,196.103302 
	C222.551514,198.364502 222.596237,201.016815 225.184952,201.888916 
	C226.362854,202.285721 227.911133,203.437103 228.771973,202.213791 
	C229.765381,200.802094 229.057800,199.050537 227.794037,197.828476 
	C227.074890,197.133041 225.978790,197.163284 224.722549,196.673584 
	C223.865738,196.083908 223.374283,195.585907 223.389694,194.894318 
	C223.488876,190.448013 227.930771,190.227448 230.307617,188.033585 
	C232.172211,186.312531 234.284241,187.233749 235.885818,189.609467 
z"/>
<path fill="#75B208" opacity="1.000000" stroke="none" 
	d="
M236.257004,189.787033 
	C231.955246,187.449783 225.224945,190.692657 224.734894,195.777740 
	C224.693481,198.205856 223.222824,197.875580 221.364868,197.249542 
	C220.494980,196.436020 219.991180,195.872040 219.243958,195.153717 
	C218.165298,192.252701 219.097672,189.049210 216.672333,186.369751 
	C216.286453,183.310059 215.859879,180.985168 212.009888,181.867096 
	C210.337906,182.250107 208.897263,181.086029 207.825989,179.286301 
	C207.549652,178.398438 207.601273,177.814636 207.843353,177.015869 
	C207.909790,176.795105 207.985123,176.405930 207.847794,176.274719 
	C207.416656,176.199417 207.126526,176.270370 206.567673,176.377106 
	C205.711975,176.364838 205.128510,176.334244 204.269531,176.138611 
	C203.992111,176.001266 203.780289,175.830475 203.824509,175.701797 
	C203.856903,175.133041 203.717026,174.741089 203.185211,174.194458 
	C202.628738,173.535202 202.316727,173.086029 201.979736,172.360703 
	C201.839188,171.901947 201.723648,171.719345 201.674469,171.221848 
	C202.892319,168.965195 201.074844,167.878586 200.237396,166.218597 
	C200.018600,165.990494 200.009628,165.492096 200.005432,165.242905 
	C199.156738,163.550537 199.704590,162.815460 201.615631,162.788467 
	C203.158646,162.977249 204.440399,163.272919 205.451675,162.877243 
	C209.539688,161.277802 210.559494,163.953293 210.901459,166.905304 
	C211.311356,170.443619 211.084229,173.662186 216.183624,170.347900 
	C218.246796,169.006958 221.059677,169.840073 222.834793,172.671173 
	C222.596054,173.597855 222.061447,173.770599 221.333374,173.662033 
	C219.950317,173.455826 218.368927,170.901306 217.270767,173.313019 
	C216.246063,175.563431 218.244415,177.548187 219.918762,178.571732 
	C221.173630,179.338852 223.266632,181.385590 224.944229,178.633865 
	C226.759491,175.656326 228.749390,175.366302 230.947601,178.659485 
	C230.333466,180.220459 227.646454,179.284241 228.089386,181.401154 
	C228.388000,182.828354 230.184174,182.499481 231.672180,182.938538 
	C232.132767,186.134735 236.850174,186.117157 236.257004,189.787033 
z"/>
<path fill="#7CB310" opacity="1.000000" stroke="none" 
	d="
M213.644806,48.997932 
	C211.279800,53.734711 203.466095,56.941525 198.329987,55.616386 
	C191.951462,53.970703 185.699188,56.385891 182.051254,61.922638 
	C181.686890,62.475639 181.432068,63.099579 181.091110,63.669483 
	C180.255447,65.066261 178.962280,65.439819 177.739258,64.498222 
	C176.499298,63.543598 177.109528,62.201782 178.158875,61.601509 
	C180.738266,60.125969 178.539017,58.943825 178.047134,57.322342 
	C176.837433,54.995415 174.086899,56.496246 172.927643,54.344322 
	C178.669601,50.995903 184.978943,50.586422 191.133820,49.768822 
	C198.468399,48.794506 205.854660,48.034630 213.644806,48.997932 
z"/>
<path fill="#7CB310" opacity="1.000000" stroke="none" 
	d="
M207.973114,177.707062 
	C209.122437,180.031326 210.698624,181.692032 213.139099,180.752609 
	C218.901886,178.534393 217.853210,181.888870 217.002899,185.606842 
	C216.131378,188.762711 218.759842,192.345993 214.625977,194.412094 
	C209.924927,189.028793 207.412308,182.635773 204.033691,176.358978 
	C204.807449,175.679214 205.606674,175.145920 206.748413,175.906677 
	C207.543961,176.320160 207.823883,176.815079 207.973114,177.707062 
z"/>
<path fill="#75B209" opacity="1.000000" stroke="none" 
	d="
M298.309479,267.006775 
	C297.403229,266.627167 296.857086,266.122833 296.270691,266.070587 
	C293.113586,265.789276 288.067841,266.749054 293.625488,261.434143 
	C294.377777,260.714752 293.784546,259.547180 293.140198,258.330719 
	C298.060303,254.396118 301.804993,257.505585 305.789429,260.737823 
	C304.986145,263.800568 300.292877,262.286499 300.044067,266.384338 
	C299.546295,266.848389 299.098663,266.969574 298.309479,267.006775 
z"/>
<path fill="#75B00A" opacity="1.000000" stroke="none" 
	d="
M172.660141,53.984039 
	C174.208664,55.737026 177.605240,52.759037 177.967102,56.665016 
	C175.387283,57.055210 174.464462,59.572037 172.296707,60.856316 
	C170.109818,62.443859 167.319946,62.803871 166.263336,65.778870 
	C165.251221,65.999298 164.500244,65.999512 163.373718,65.999405 
	C162.020447,59.607975 162.020447,59.607975 170.906784,54.723633 
	C171.434418,54.248158 171.872528,54.096134 172.660141,53.984039 
z"/>
<path fill="#5D3A16" opacity="1.000000" stroke="none" 
	d="
M94.543060,361.145447 
	C95.279091,363.880646 94.326378,365.607391 91.505608,364.939789 
	C88.106186,364.135193 85.487686,368.735443 81.596207,366.046631 
	C79.958145,361.910706 81.632187,360.556488 85.645920,360.920715 
	C88.441650,361.174408 91.276169,361.000732 94.543060,361.145447 
z"/>
<path fill="#75B108" opacity="1.000000" stroke="none" 
	d="
M214.249420,194.549255 
	C216.113327,193.476715 216.292633,191.954208 215.572266,190.258240 
	C214.917114,188.715744 214.911606,187.409195 216.676361,186.168228 
	C220.492142,188.005493 220.389999,191.014938 219.153320,194.648560 
	C217.787674,194.999222 216.574814,194.999069 214.897064,194.992157 
	C214.432159,194.985413 214.264038,194.709946 214.249420,194.549255 
z"/>
<path fill="#ABC270" opacity="1.000000" stroke="none" 
	d="
M367.217712,158.752670 
	C363.948181,155.564407 363.299713,151.236313 362.963409,146.703049 
	C364.679962,149.848831 366.396515,152.994629 368.123779,156.500336 
	C367.631683,157.295898 367.487457,157.888245 367.217712,158.752670 
z"/>
<path fill="#75B108" opacity="1.000000" stroke="none" 
	d="
M348.708130,214.593399 
	C346.883514,215.046814 344.395020,217.562164 343.735321,214.329178 
	C343.251465,211.958115 344.225403,209.259811 348.269043,210.010849 
	C348.711731,211.403290 348.770050,212.796722 348.708130,214.593399 
z"/>
<path fill="#5D3A16" opacity="1.000000" stroke="none" 
	d="
M103.801392,364.609375 
	C101.455719,365.046631 99.252800,365.122345 99.021561,361.655396 
	C101.421669,361.004944 104.419815,359.773926 103.801392,364.609375 
z"/>
<path fill="#75AF08" opacity="1.000000" stroke="none" 
	d="
M423.287170,139.940918 
	C422.876801,140.030441 422.709473,140.061386 422.545380,140.049225 
	C421.173340,139.947403 419.830536,141.885956 418.509796,140.180084 
	C418.304077,139.914383 418.732269,138.917923 419.117096,138.477722 
	C420.554932,136.832901 422.114502,136.420258 423.836121,138.686111 
	C423.843567,139.279984 423.687653,139.571167 423.287170,139.940918 
z"/>
<path fill="#5D3A16" opacity="1.000000" stroke="none" 
	d="
M103.807007,372.417053 
	C101.836891,373.239777 100.997833,372.069275 100.150101,370.338928 
	C99.604576,369.623138 99.458237,369.163177 99.780655,368.312195 
	C100.968033,367.679565 101.934532,367.359100 103.293877,367.046295 
	C103.767410,368.708405 103.848106,370.362854 103.807007,372.417053 
z"/>
<path fill="#77B30E" opacity="1.000000" stroke="none" 
	d="
M200.013901,166.330688 
	C201.530090,167.296494 205.239594,167.403625 202.371658,170.988129 
	C201.902008,171.177460 201.766022,171.294968 201.460602,171.202789 
	C201.291138,170.993134 200.947205,170.707993 200.927917,170.485443 
	C200.822281,169.936172 200.665070,169.648178 200.307755,169.187103 
	C200.178558,168.975342 199.981186,168.907776 200.012314,168.807953 
	C200.032028,168.029037 200.020615,167.349960 200.013901,166.330688 
z"/>
<path fill="#75B009" opacity="1.000000" stroke="none" 
	d="
M320.507050,260.073669 
	C319.274475,259.712860 317.026398,260.496704 317.794617,258.532990 
	C318.356354,257.097046 320.274750,256.491699 321.823181,258.649475 
	C321.579773,259.304779 321.182465,259.672150 320.507050,260.073669 
z"/>
<path fill="#75B308" opacity="1.000000" stroke="none" 
	d="
M303.315613,143.388016 
	C303.090393,141.836075 303.305695,140.159103 304.985718,140.460953 
	C306.704437,140.769760 305.749512,142.196976 305.210876,143.502167 
	C304.597015,143.726288 304.113007,143.656601 303.315613,143.388016 
z"/>
<path fill="#74B207" opacity="1.000000" stroke="none" 
	d="
M241.695526,52.424553 
	C241.899429,53.750031 241.927094,55.075043 240.292450,54.816715 
	C238.805206,54.581684 239.343765,53.546150 239.846359,52.384480 
	C240.444672,52.131168 240.923798,52.167156 241.695526,52.424553 
z"/>
<path fill="#7BB212" opacity="1.000000" stroke="none" 
	d="
M367.123047,159.152069 
	C367.213776,158.396011 367.405060,157.797745 367.865417,157.029877 
	C368.311005,157.161774 368.487518,157.463272 368.697815,158.022369 
	C368.540924,158.476898 368.350250,158.673843 367.865387,159.159668 
	C367.571228,159.448547 367.223602,159.309875 367.123047,159.152069 
z"/>
<path fill="#7CB310" opacity="1.000000" stroke="none" 
	d="
M200.179352,169.245392 
	C200.395340,169.234390 200.612122,169.493454 200.868744,170.007690 
	C200.665787,170.013733 200.422974,169.764587 200.179352,169.245392 
z"/>
<path fill="#7CB310" opacity="1.000000" stroke="none" 
	d="
M201.278442,171.234039 
	C201.291138,170.993134 201.665512,171.007980 201.851746,171.033966 
	C202.027512,171.230988 202.017014,171.402039 201.980637,171.828827 
	C201.596436,172.026718 201.366776,171.823517 201.278442,171.234039 
z"/>
<path fill="#77B30E" opacity="1.000000" stroke="none" 
	d="
M202.956390,174.313705 
	C203.222733,174.297806 203.504700,174.611237 203.827698,175.248901 
	C203.569839,175.263092 203.270950,174.953064 202.956390,174.313705 
z"/>
<path fill="#7CB310" opacity="1.000000" stroke="none" 
	d="
M323.271912,208.741699 
	C321.037231,209.880341 320.214142,211.693863 319.238342,213.430176 
	C318.309601,215.082764 317.595215,217.386826 314.933746,216.397186 
	C312.660309,215.551819 310.710083,214.108353 311.041016,211.324585 
	C311.757660,205.295975 313.760590,199.954315 320.641541,200.986023 
	C321.449188,201.107117 322.290649,201.002838 323.555786,201.003052 
	C327.657867,204.561737 327.612030,205.330002 323.271912,208.741699 
z"/>
<path fill="#7CB310" opacity="1.000000" stroke="none" 
	d="
M327.363159,191.235168 
	C325.965546,190.942871 324.962524,190.665329 324.461456,189.720444 
	C322.757782,186.507935 320.355591,186.183746 317.508942,188.023712 
	C316.084839,188.944199 314.967682,188.884384 314.343964,187.304794 
	C313.732178,185.755371 314.298309,184.952957 315.912170,183.898148 
	C319.479950,181.566376 324.025635,184.014771 327.639221,181.041183 
	C328.001221,181.001007 328.000000,181.000000 327.999390,180.999695 
	C329.810791,183.266953 329.673004,186.150589 330.364532,188.758011 
	C330.891632,190.745453 329.924164,191.845840 327.363159,191.235168 
z"/>
<path fill="#75B208" opacity="1.000000" stroke="none" 
	d="
M257.000732,64.374588 
	C259.225586,63.775070 261.069580,62.581642 262.864258,61.448376 
	C266.156036,59.369797 268.753784,61.540447 271.501556,62.649975 
	C272.380096,63.004719 273.230652,63.959118 272.648376,65.056450 
	C272.042816,66.197693 271.033356,65.965363 270.181976,65.201469 
	C268.325897,63.536110 267.432617,64.742096 267.128235,66.418480 
	C266.306580,70.943977 264.274750,70.700485 261.490295,68.032181 
	C260.426941,67.013176 259.117462,66.980286 257.390930,67.003632 
	C257.001709,66.252701 257.000977,65.501442 257.000732,64.374588 
z"/>
<path fill="#75B208" opacity="1.000000" stroke="none" 
	d="
M327.024506,191.318588 
	C328.223907,190.750595 330.722382,191.295410 329.139557,188.850189 
	C327.643829,186.539505 328.202271,184.203201 327.998779,181.426270 
	C329.484528,180.999771 330.970276,181.005493 332.455994,180.999359 
	C335.015625,180.988800 337.109863,181.279602 334.956177,184.579865 
	C334.605927,185.116547 334.009552,185.997208 334.199371,186.307510 
	C338.432800,193.227875 331.426239,192.023010 328.375183,193.963287 
	C327.685425,193.216080 327.367218,192.427231 327.024506,191.318588 
z"/>
<path fill="#75B308" opacity="1.000000" stroke="none" 
	d="
M308.350372,135.937805 
	C305.538422,138.506226 301.229919,137.481171 299.142883,140.560394 
	C298.556519,141.425552 298.856628,143.057037 297.131226,142.686096 
	C295.880524,142.417191 296.072418,141.174667 295.921539,140.250748 
	C295.735809,139.113647 294.426941,137.750793 296.538910,136.994827 
	C297.298798,136.722839 297.947266,135.993668 298.705200,135.886139 
	C303.191528,135.249741 303.432983,131.512848 304.703094,128.145966 
	C305.718170,129.521973 307.070251,130.340836 308.391266,131.281586 
	C310.205292,132.573486 310.882111,134.193451 308.350372,135.937805 
z"/>
<path fill="#75B208" opacity="1.000000" stroke="none" 
	d="
M323.376740,209.003754 
	C324.150513,206.667480 327.333252,204.688553 324.133362,201.315536 
	C325.420105,200.694397 326.845123,200.385757 328.635681,200.038544 
	C328.449341,204.662460 332.315369,201.155838 333.787109,202.734344 
	C333.306641,204.311691 333.009064,205.675980 332.990540,207.198456 
	C332.971771,208.737350 335.376251,210.750793 332.586792,211.766037 
	C330.557922,212.504456 328.398987,212.155090 326.791351,210.316391 
	C326.004181,209.416092 324.973572,208.971390 323.376740,209.003754 
z"/>
<path fill="#7CB310" opacity="1.000000" stroke="none" 
	d="
M312.756592,130.167496 
	C311.948730,128.564774 310.332672,127.140266 311.505554,125.853455 
	C312.742126,124.496819 314.536072,126.228928 316.186310,126.059753 
	C319.911224,125.677902 320.700684,128.914246 321.802124,131.354797 
	C322.459015,132.810394 321.661835,134.308136 319.900360,134.833542 
	C316.832733,135.748581 315.327515,133.824997 313.999817,131.556946 
	C313.754059,131.137115 313.333252,130.819763 312.756592,130.167496 
z"/>
<path fill="#74B109" opacity="1.000000" stroke="none" 
	d="
M256.693146,234.151550 
	C257.589661,234.487488 258.175690,234.976181 258.881470,235.731049 
	C258.037659,238.821152 260.846436,240.241409 261.209320,242.746643 
	C258.056641,242.761856 257.409607,244.688873 258.195862,246.769196 
	C259.336151,249.786179 257.293488,251.323074 255.476990,251.328323 
	C252.800491,251.336060 254.441162,248.560654 254.035309,247.048065 
	C253.873840,246.446350 253.831802,245.508514 254.178925,245.121460 
	C257.662231,241.237442 254.442947,239.083923 252.050873,236.344147 
	C253.774582,236.246841 255.142120,235.439697 256.693146,234.151550 
z"/>
<path fill="#7CB310" opacity="1.000000" stroke="none" 
	d="
M166.206482,66.278229 
	C165.504257,62.034370 167.401016,60.547413 171.585510,61.000900 
	C172.006287,61.662228 172.162384,62.363617 171.996552,62.978115 
	C171.466492,64.942139 175.635681,66.575500 172.555756,68.521446 
	C170.011093,70.129196 168.348495,67.604843 166.206482,66.278229 
z"/>
<path fill="#75B208" opacity="1.000000" stroke="none" 
	d="
M247.063293,61.365196 
	C249.137848,59.728477 250.710007,57.210480 253.815063,58.105083 
	C255.938858,58.716969 257.285889,59.794842 256.997314,62.605671 
	C253.567322,63.665173 249.971848,65.614929 247.063293,61.365196 
z"/>
<path fill="#7CB310" opacity="1.000000" stroke="none" 
	d="
M231.996521,182.649704 
	C230.111481,184.930710 228.327011,183.823654 226.746231,182.630157 
	C225.721848,181.856750 225.849609,180.545685 226.416626,179.452835 
	C227.427765,177.504028 228.924454,178.611664 230.640900,178.966370 
	C231.330383,180.101639 231.662018,181.200546 231.996521,182.649704 
z"/>
<path fill="#75B208" opacity="1.000000" stroke="none" 
	d="
M273.000732,256.627533 
	C272.674652,259.536865 273.945801,263.679138 268.664703,261.064880 
	C267.134766,260.307556 266.838226,259.230743 268.161407,258.674133 
	C270.385773,257.738434 270.498993,255.212723 272.649689,254.051437 
	C272.997650,254.746811 272.998962,255.499100 273.000732,256.627533 
z"/>
<path fill="#75B108" opacity="1.000000" stroke="none" 
	d="
M342.990509,220.373230 
	C345.753815,222.609009 345.596344,223.084000 340.353760,226.963104 
	C337.219940,223.121384 343.114929,223.369156 342.990509,220.373230 
z"/>
<path fill="#75B208" opacity="1.000000" stroke="none" 
	d="
M336.208405,203.262299 
	C338.973846,201.149643 340.922333,202.026245 341.992493,205.626526 
	C340.139343,205.175934 338.278687,204.351852 336.208405,203.262299 
z"/>
<path fill="#7CB310" opacity="1.000000" stroke="none" 
	d="
M304.480408,102.312675 
	C303.946686,100.765564 304.419556,99.823624 305.676178,99.430450 
	C305.946533,99.345863 306.678436,99.808449 306.726776,100.097672 
	C306.979126,101.607971 306.448547,102.615677 304.480408,102.312675 
z"/>
<path fill="#74B109" opacity="1.000000" stroke="none" 
	d="
M251.997925,234.620544 
	C251.110870,234.504868 250.223557,234.006912 249.167953,233.255692 
	C249.130814,232.018738 249.435562,230.998093 250.636108,231.216721 
	C252.361298,231.530930 251.873291,233.073212 251.997925,234.620544 
z"/>
<path fill="#FBFCFA" opacity="1.000000" stroke="none" 
	d="
M661.218628,374.746704 
	C668.518494,398.839325 675.586121,422.578735 683.015930,446.204254 
	C684.441040,450.736084 683.049744,451.110229 679.160583,451.075745 
	C661.688782,450.920898 644.214905,450.991852 626.741821,450.999634 
	C620.807800,451.002258 620.745667,451.008118 622.412659,445.462494 
	C628.966248,423.660889 635.797424,401.939240 642.049988,380.052063 
	C645.516541,367.917236 648.042053,355.513580 650.992554,343.231293 
	C651.294250,341.975464 651.128113,340.526886 652.813416,339.427002 
	C655.604797,351.174652 658.358643,362.764252 661.218628,374.746704 
z"/>
<path fill="#FBFAFA" opacity="1.000000" stroke="none" 
	d="
M449.138977,422.740723 
	C443.692841,423.890350 438.795288,423.339325 433.995667,421.587372 
	C423.705170,417.830994 414.568848,412.201324 406.393250,404.913879 
	C404.422058,403.156860 404.300964,402.199524 406.353882,400.321198 
	C422.504059,385.544708 447.977692,388.652069 460.033783,406.948669 
	C461.605621,409.334106 461.645935,411.596649 460.084320,413.906097 
	C457.427704,417.834961 454.371704,421.301941 449.138977,422.740723 
z"/>
<path fill="#633A11" opacity="1.000000" stroke="none" 
	d="
M92.997276,389.097443 
	C92.519608,385.174316 94.419342,382.201874 95.009491,378.957123 
	C95.168526,378.082733 95.442596,377.276917 96.456017,377.247650 
	C97.464111,377.218536 97.802483,377.988586 97.983582,378.864349 
	C98.452431,381.131683 99.067909,383.334595 99.046722,385.721954 
	C98.947708,396.881927 99.077721,408.044067 98.956718,419.203613 
	C98.921028,422.495087 98.182945,425.774323 98.043983,429.070831 
	C97.936638,431.617401 96.605606,432.924316 94.362549,432.755737 
	C92.089088,432.584839 90.909813,430.792542 91.062340,428.517303 
	C91.183121,426.715637 91.807487,424.950867 91.968826,423.148285 
	C92.969231,411.971680 91.090752,400.704865 92.997276,389.097443 
z"/>
<path fill="#633A11" opacity="1.000000" stroke="none" 
	d="
M99.999756,441.068604 
	C99.806877,442.581299 99.842155,443.810272 99.361290,444.784424 
	C98.693726,446.136810 97.490082,445.763580 96.387817,445.135651 
	C95.313141,444.523468 94.974648,443.648773 95.844032,442.750244 
	C97.524498,441.013428 96.615234,438.625763 97.430443,436.401428 
	C99.710327,437.196533 99.889153,438.911987 99.999756,441.068604 
z"/>
<path fill="#633A11" opacity="1.000000" stroke="none" 
	d="
M99.633209,368.008301 
	C100.000931,368.445343 100.000336,368.890717 99.999252,369.670166 
	C99.019073,370.148163 98.468285,372.862335 97.263237,370.766052 
	C96.444412,369.341614 97.342575,368.036102 99.633209,368.008301 
z"/>
<path fill="#74B208" opacity="1.000000" stroke="none" 
	d="
M382.460907,145.933716 
	C381.749542,142.363754 384.377380,141.061707 386.800201,139.594574 
	C387.757538,139.014862 389.070435,138.671326 388.801849,137.120377 
	C388.567841,135.769424 387.589752,135.212982 386.343262,135.043839 
	C382.755463,134.556915 383.278381,133.394165 384.682007,130.471619 
	C386.592560,126.493546 387.643005,121.911964 385.885468,117.309746 
	C384.397980,113.414696 385.217346,108.730667 381.538300,105.522018 
	C380.650726,104.747940 382.321930,104.023621 382.994873,103.392319 
	C385.611969,100.937065 386.104950,98.884895 381.818146,97.980148 
	C379.983398,97.592911 380.008514,96.339294 380.152344,94.590729 
	C386.184601,92.648933 388.774811,97.105820 391.745636,100.764977 
	C392.407684,101.580421 392.304230,103.235023 393.995483,102.630928 
	C395.167267,102.212395 394.973206,101.034531 394.980804,100.080605 
	C395.010437,96.354973 395.558075,93.465034 400.606689,94.509888 
	C402.353577,94.871422 403.030273,92.532837 403.722565,91.148628 
	C404.299408,89.995262 403.584229,88.454926 402.406799,88.404198 
	C399.447449,88.276680 399.989166,82.012825 395.332764,84.858917 
	C393.553528,85.854973 392.835266,85.267754 392.789856,83.384537 
	C394.123688,82.899681 395.905334,83.114670 395.755219,81.635872 
	C395.420410,78.337234 398.362915,76.760834 399.159515,74.079941 
	C400.319916,70.174515 399.344971,68.278954 395.346710,68.053932 
	C393.041138,67.924171 390.668091,67.997704 388.401947,68.405258 
	C385.345093,68.955040 384.890533,67.726440 385.414062,65.117012 
	C386.158630,61.405956 386.221771,57.541798 388.091797,54.099270 
	C388.405457,53.521858 388.696259,52.860867 388.740417,52.220745 
	C388.918152,49.645264 390.205994,46.252804 388.053192,44.790668 
	C386.376312,43.651772 385.010864,47.195930 383.199005,48.195751 
	C379.046570,50.487141 377.227814,52.982643 379.606323,58.158195 
	C380.997620,61.185448 380.595215,65.354813 379.161285,68.902611 
	C378.788330,69.825356 378.599548,70.937492 377.245300,70.703133 
	C376.233734,70.528061 375.979645,69.638474 376.051117,68.796196 
	C376.311798,65.724457 375.542206,62.897434 374.330933,60.112961 
	C373.916534,59.160301 375.782684,57.108223 373.248444,57.240303 
	C371.538910,57.329395 370.428192,58.571049 370.341644,60.627327 
	C370.133514,65.570404 370.183136,70.313301 376.400208,72.988411 
	C368.934052,73.364365 371.746338,77.810982 371.999268,81.588013 
	C368.580627,83.122612 365.450348,84.328484 366.712067,89.104019 
	C367.005066,90.213112 366.316528,91.745712 365.709869,92.886856 
	C364.947662,94.320526 363.305481,94.130333 363.299347,92.700516 
	C363.286896,89.798607 361.134552,87.005112 362.966064,84.005768 
	C364.792297,81.014977 364.026581,78.133179 361.630585,75.952644 
	C360.263031,74.708038 360.146088,73.032539 359.178711,71.714813 
	C356.988190,68.730995 358.558960,67.833298 361.424896,68.027153 
	C366.270782,68.354950 367.501648,65.663292 368.109680,61.399891 
	C368.941101,55.570465 370.963989,50.534054 376.451477,46.709274 
	C382.415497,42.552376 388.631500,39.661945 395.206482,36.742641 
	C400.075867,34.580647 405.619812,33.028980 410.069366,29.645119 
	C411.175842,28.803665 412.707855,28.502134 413.600830,29.871895 
	C414.372681,31.055876 413.500122,32.123127 412.413330,32.741993 
	C409.384949,34.466484 409.154572,36.916695 411.063904,39.398087 
	C413.246460,42.234539 414.990601,39.610073 416.959656,38.614258 
	C420.213074,36.968864 422.512085,34.840210 424.340485,31.458044 
	C426.608368,27.262943 431.351990,26.989304 435.782043,27.022945 
	C437.209320,27.033783 437.779449,27.876165 438.161072,29.110201 
	C438.674377,30.769987 439.643494,32.250774 441.412537,32.607998 
	C445.792145,33.492371 445.095093,36.417904 444.671997,40.260338 
	C438.860535,35.434029 435.178497,39.385963 431.297577,42.442173 
	C430.300140,43.227634 429.467255,44.979668 430.535553,45.291283 
	C435.049377,46.607944 435.812836,52.307678 440.900360,53.249287 
	C444.206360,53.861168 447.159180,56.510639 450.197876,58.365803 
	C451.239410,59.001678 451.073273,60.253708 450.418030,61.019505 
	C448.306610,63.487072 448.338989,67.993431 443.700226,68.107407 
	C442.732941,68.131172 442.188782,68.755379 442.846191,69.779305 
	C443.113159,70.195137 443.752594,70.622536 443.696442,70.956078 
	C443.169708,74.084145 447.369324,76.999062 444.799377,79.794914 
	C442.502930,82.293190 441.534790,77.301552 438.656708,77.728355 
	C435.899292,78.137268 427.828613,80.376907 426.438843,82.744064 
	C425.727631,83.955437 425.842224,85.314850 426.451630,86.571487 
	C426.840424,87.373215 427.568481,87.883965 428.455719,87.793526 
	C430.089233,87.627022 429.930450,86.271423 430.013306,85.138237 
	C430.235687,82.098572 432.447266,81.320312 434.568390,82.272156 
	C436.705353,83.231094 439.063812,85.205292 437.192627,88.123138 
	C435.478149,90.796562 434.793121,93.215866 435.491241,96.513504 
	C436.048279,99.144753 433.971283,101.597984 431.529724,102.813759 
	C428.453522,104.345551 425.161804,106.260017 421.902008,106.382347 
	C418.517059,106.509384 419.064636,108.101006 418.996552,110.028275 
	C418.904816,112.625038 419.346375,115.150230 417.150543,117.466957 
	C411.360016,123.576355 411.133636,127.814339 415.629852,135.053619 
	C414.906525,136.602737 412.032410,134.012283 411.977234,136.940155 
	C411.950775,138.343323 411.182922,139.194305 409.701080,138.678421 
	C408.461731,138.246933 408.163605,137.118378 407.998169,135.880371 
	C407.688568,133.563690 409.046021,129.477173 404.659088,130.488220 
	C400.508789,131.444748 403.269501,135.179306 403.200195,137.693039 
	C403.182861,138.322601 403.965698,139.400635 404.565796,139.555389 
	C411.181366,141.261932 406.557159,144.633530 405.738983,147.372467 
	C405.505035,148.155441 404.406525,149.110626 403.870117,148.598755 
	C400.713715,145.586945 398.063599,148.726028 395.237854,149.160217 
	C393.340759,149.451721 391.242371,150.958847 390.888031,147.468674 
	C390.811554,146.715256 390.007233,146.028275 389.560455,146.498215 
	C387.014893,149.175629 385.060242,145.964249 382.460907,145.933716 
z"/>
<path fill="#74B208" opacity="1.000000" stroke="none" 
	d="
M444.463013,51.879631 
	C441.940887,49.087212 444.235657,48.796982 446.022827,47.782936 
	C451.082001,44.912373 449.154694,39.520359 449.713348,35.272587 
	C450.013092,32.993427 447.854431,30.317532 444.238403,30.591368 
	C442.571381,30.717606 442.581268,28.970509 442.173828,27.212976 
	C446.087067,28.178896 449.570679,28.713379 452.205383,31.616564 
	C453.401428,32.934479 454.882751,33.911896 457.011536,33.547310 
	C460.319794,32.980740 461.631195,34.827164 462.231476,37.945431 
	C462.644379,40.090206 462.575653,41.107407 460.133484,41.010460 
	C457.535309,40.907330 455.082947,41.832401 455.300293,44.663532 
	C455.470398,46.879162 456.146973,49.825554 459.463135,49.962749 
	C461.285828,50.038158 462.481842,50.960411 462.533081,52.554733 
	C462.599976,54.634743 460.583527,53.650108 459.506683,54.090092 
	C458.603424,54.459164 457.783813,55.028999 456.889709,55.425457 
	C455.510162,56.037167 454.202026,56.332848 454.521393,54.045860 
	C455.189117,49.264240 452.672150,49.346737 449.601593,51.018513 
	C448.014069,51.882828 446.501068,52.014896 444.463013,51.879631 
z"/>
<path fill="#75B009" opacity="1.000000" stroke="none" 
	d="
M418.873169,127.789062 
	C422.231903,126.202301 425.706665,125.106155 422.438812,120.652451 
	C421.823486,119.813904 421.977722,118.627136 423.226501,118.237839 
	C424.463470,117.852211 425.774506,118.092743 425.848175,119.616760 
	C425.951996,121.764725 427.004303,122.412758 428.873901,123.379761 
	C431.477966,124.726677 428.822479,126.340302 427.822235,127.053528 
	C425.482117,128.722153 423.329346,130.306046 423.216553,133.828415 
	C422.747040,130.788391 414.688843,134.525040 418.873169,127.789062 
z"/>
<path fill="#75AF08" opacity="1.000000" stroke="none" 
	d="
M392.608948,82.999161 
	C393.074158,83.907761 393.311401,84.701050 394.682556,84.960068 
	C394.581421,87.449532 395.103119,91.105904 390.710236,89.018219 
	C389.358521,88.375816 387.798248,87.051407 388.223602,85.064453 
	C388.684998,82.909019 390.534241,83.017822 392.608948,82.999161 
z"/>
<path fill="#74B208" opacity="1.000000" stroke="none" 
	d="
M372.000610,81.999390 
	C373.761749,82.179489 375.607544,81.562325 377.728760,82.756256 
	C376.206085,84.820435 374.752350,86.791183 373.131714,88.988174 
	C371.344818,86.742508 372.280975,84.700043 371.998474,82.421394 
	C371.998779,82.001221 372.000000,82.000000 372.000610,81.999390 
z"/>
<path fill="#75B208" opacity="1.000000" stroke="none" 
	d="
M435.692505,108.093689 
	C435.000946,109.571907 434.741943,111.683640 432.767365,110.477684 
	C431.545715,109.731598 432.714355,108.336617 433.120422,107.459892 
	C434.040802,105.472847 434.960632,106.462730 435.692505,108.093689 
z"/>
<path fill="#75B208" opacity="1.000000" stroke="none" 
	d="
M149.116028,66.816498 
	C150.634689,69.560555 149.198639,70.965103 147.140060,71.568848 
	C145.810699,71.958725 145.083969,70.572899 145.095139,69.332977 
	C145.117340,66.868431 146.112839,65.466393 149.116028,66.816498 
z"/>
<path fill="#75B108" opacity="1.000000" stroke="none" 
	d="
M201.958817,162.639297 
	C201.095978,163.074051 200.302597,163.306976 200.042847,164.673828 
	C198.120117,163.931549 197.071106,162.179199 198.716858,160.598816 
	C200.154785,159.218033 201.359909,160.681671 201.958817,162.639297 
z"/>
<path fill="#74B207" opacity="1.000000" stroke="none" 
	d="
M261.398926,242.992065 
	C260.732727,242.455170 260.489868,241.450912 260.194611,241.435272 
	C255.194427,241.170120 257.049255,238.870514 258.851593,236.302475 
	C261.012299,236.646423 264.220245,234.384445 264.899658,238.177399 
	C265.316284,240.503555 265.085571,242.843765 261.398926,242.992065 
z"/>
<path fill="#75B207" opacity="1.000000" stroke="none" 
	d="
M379.723541,125.758453 
	C379.911652,126.607094 379.987091,127.093948 379.984833,127.580437 
	C379.977112,129.235565 380.094055,131.241699 377.617035,130.807510 
	C375.298828,130.401184 375.918152,128.249756 376.113312,126.789658 
	C376.396729,124.669289 377.395386,123.299675 379.723541,125.758453 
z"/>
<path fill="#75B208" opacity="1.000000" stroke="none" 
	d="
M377.140625,111.064354 
	C376.457428,109.780388 375.225861,109.158157 375.503906,107.441956 
	C377.328278,107.714127 379.540161,107.275719 379.850433,109.955673 
	C380.051422,111.691643 378.994537,112.340927 377.140625,111.064354 
z"/>
<path fill="#74B008" opacity="1.000000" stroke="none" 
	d="
M221.005829,197.393188 
	C222.178177,196.848022 223.357590,196.696045 224.768799,196.271729 
	C229.065231,196.139069 231.521851,199.081970 230.942612,203.063446 
	C230.769226,204.255081 230.264633,204.891464 229.013046,204.450806 
	C225.525909,203.223129 220.886368,203.357742 221.005829,197.393188 
z"/>
<path fill="#7CB310" opacity="1.000000" stroke="none" 
	d="
M224.590103,187.629044 
	C223.835266,189.112610 223.201004,190.550690 221.717926,188.918442 
	C220.773499,187.879013 220.525330,186.271210 221.742126,185.516342 
	C223.306641,184.545776 224.442627,185.472351 224.590103,187.629044 
z"/>
<path fill="#77B30E" opacity="1.000000" stroke="none" 
	d="
M208.243347,177.832779 
	C207.678711,177.532364 207.359863,177.064911 207.020309,176.300262 
	C207.100555,175.679474 207.287933,175.417786 207.781372,175.110031 
	C208.346664,175.067230 208.627869,175.241165 208.926086,175.753067 
	C208.828293,176.554276 208.658707,177.110016 208.243347,177.832779 
z"/>
<path fill="#7CB310" opacity="1.000000" stroke="none" 
	d="
M209.218369,175.844666 
	C208.676178,175.897491 208.415909,175.710831 208.109039,175.220306 
	C208.348709,174.449249 208.819550,174.027145 209.417313,174.529846 
	C209.612152,174.693680 209.442047,175.291473 209.218369,175.844666 
z"/>
<path fill="#7CB310" opacity="1.000000" stroke="none" 
	d="
M329.493835,206.667618 
	C330.949249,206.479996 330.950104,207.266388 330.656158,208.118240 
	C330.587341,208.317688 330.070282,208.553467 329.863098,208.480057 
	C329.094910,208.207825 329.094604,207.557190 329.493835,206.667618 
z"/>
<path fill="#7CB411" opacity="1.000000" stroke="none" 
	d="
M403.191833,107.973969 
	C406.462769,106.730110 409.470276,106.806816 412.436646,107.129875 
	C414.442841,107.348351 415.810577,108.716606 415.874054,110.788567 
	C415.952362,113.343689 413.895203,112.966049 412.287292,112.984764 
	C409.295807,113.019592 406.303406,112.999489 403.311646,112.974541 
	C401.889740,112.962685 400.571869,112.570694 400.262268,110.992531 
	C399.888031,109.084648 401.116272,108.317291 403.191833,107.973969 
z"/>
<path fill="#7CB411" opacity="1.000000" stroke="none" 
	d="
M391.954712,45.604317 
	C391.212952,45.201469 391.207153,44.794399 391.732483,44.433567 
	C391.842682,44.357899 392.098572,44.360012 392.206360,44.438080 
	C392.722595,44.811928 392.703796,45.218781 391.954712,45.604317 
z"/>
</svg>